# xmcd
#
# Track frame offsets: 
#        150
#        17426
#        35497
#        54480
#        72031
#        90920
#        105410
#        123543
#        141232
#        156626
#
# Disc length: 2332 seconds
#
# Revision: 0
# Processed by: cddbd v1.5.2PL0 Copyright (c) Steve Scherf et al.
# Submitted via: ExactAudioCopy v0.99pb3
#
DISCID=7d091a0a
DTITLE=น้องซิลดี้ มา'์ - แดนเซอร์กระปุ๊กลุก
DYEAR=2008
DGENRE=Country
TTITLE0=แดนเซอร์กระปุ๊กลุก
TTITLE1=ยิ้มเถิดประเทศไทย
TTITLE2=ขายมาลัยให้ค่าเรียน
TTITLE3=หนูจะเป็นเด็กดี
TTITLE4=ไม่ดีนะค่ะ
TTITLE5=อนุรักษ์การละเล่นเด็กไทย
TTITLE6=อ้อนแม่เข้ากรุงฯ
TTITLE7=เกือบเจอแล๊ะ
TTITLE8=หนูรักตำราเรียน
TTITLE9=เหนียวจัง
EXTD=
EXTT0=
EXTT1=
EXTT2=
EXTT3=
EXTT4=
EXTT5=
EXTT6=
EXTT7=
EXTT8=
EXTT9=
PLAYORDER=
